<?xml version="1.0" encoding="UTF-8" standalone="no"?>
<!-- Created with Inkscape (http://www.inkscape.org/) -->

<svg
   width="197.64745mm"
   height="179.99998mm"
   viewBox="0 0 197.64745 179.99998"
   version="1.1"
   id="svg5585"
   inkscape:version="1.2.1 (9c6d41e, 2022-07-14)"
   sodipodi:docname="aura_logo_w.svg"
   inkscape:export-filename="aura_logo_w.svg"
   inkscape:export-xdpi="330"
   inkscape:export-ydpi="330"
   xmlns:inkscape="http://www.inkscape.org/namespaces/inkscape"
   xmlns:sodipodi="http://sodipodi.sourceforge.net/DTD/sodipodi-0.dtd"
   xmlns="http://www.w3.org/2000/svg"
   xmlns:svg="http://www.w3.org/2000/svg">
  <sodipodi:namedview
     id="namedview5587"
     pagecolor="#ffffff"
     bordercolor="#000000"
     borderopacity="0.25"
     inkscape:showpageshadow="2"
     inkscape:pageopacity="0.0"
     inkscape:pagecheckerboard="0"
     inkscape:deskcolor="#d1d1d1"
     inkscape:document-units="mm"
     showgrid="false"
     inkscape:zoom="0.2102413"
     inkscape:cx="-187.87936"
     inkscape:cy="570.77273"
     inkscape:window-width="1367"
     inkscape:window-height="404"
     inkscape:window-x="2175"
     inkscape:window-y="546"
     inkscape:window-maximized="0"
     inkscape:current-layer="layer1" />
  <defs
     id="defs5582" />
  <g
     inkscape:label="Capa 1"
     inkscape:groupmode="layer"
     id="layer1"
     transform="translate(-6.1762763,-58.500002)">
    <g
       id="g596"
       transform="matrix(0.34134651,0,0,0.34134651,-66.807219,-5.1123364)">
      <path
         style="fill:#ffffff;fill-opacity:1"
         d="m 593.03579,713.23964 c -57.66043,-3.9103 -111.37895,-35.62944 -143.78504,-84.90066 -12.09552,-18.3904 -20.60937,-38.2934 -24.94925,-58.32438 -1.14881,-5.3024 -2.08874,-10.09858 -2.08874,-10.65817 0,-0.5596 1.55564,-1.01745 3.45698,-1.01745 3.79526,0 26.58863,-5.66664 35.9571,-8.93926 3.25274,-1.13625 5.99932,-1.95225 6.10351,-1.81333 0.10419,0.13892 0.74475,3.17759 1.42347,6.75259 7.90422,41.63341 36.63057,78.71157 75.97493,98.06363 30.91283,15.2049 60.72911,18.50328 94.58401,10.46321 31.31457,-7.43677 62.12189,-28.54968 81.75267,-56.02684 6.61309,-9.25633 15.99131,-28.79092 19.20331,-40 5.68159,-19.8273 6.95361,-46.62563 3.08533,-65 -5.79662,-27.53402 -17.59074,-49.69399 -36.47837,-68.53923 -26.77384,-26.71375 -53.90165,-39.634 -90.23524,-42.97662 -40.60748,-3.73582 -79.58958,11.04011 -110.84692,42.01585 -10.22351,10.13141 -15.59612,17.56603 -24.12989,33.391 -4.91805,9.12 -5.91911,10.31039 -12.84235,15.27114 -10.33266,7.40371 -25.67383,14.78859 -36.94692,17.78537 -5.19111,1.37998 -9.61792,2.32952 -9.83736,2.11008 -0.57181,-0.57181 1.4519,-10.30332 4.81192,-23.1393 10.93599,-41.77782 39.2656,-80.75787 76.17899,-104.81829 26.86372,-17.50997 55.12904,-27.19461 84.99239,-29.12123 5.11084,-0.32972 11.31744,-0.77121 13.79244,-0.98109 6.31326,-0.53537 28.94805,1.25314 38.5,3.0421 23.00056,4.30773 46.66264,13.23652 65.28659,24.63563 21.1179,12.92558 40.38311,31.5313 54.69702,52.82459 7.21776,10.7371 18.30811,33.37545 22.95255,46.85224 12.61506,36.60517 12.21786,79.96198 -1.08588,118.53094 -4.66852,13.53453 -14.90931,34.32171 -21.62838,43.9022 -38.48801,54.87866 -101.47233,85.12007 -167.89887,80.61528 z M 375.21276,554.21773 c -18.87303,-2.16859 -38.865,-7.94338 -56.5,-16.32032 -21.00381,-9.9772 -35.32911,-20.15421 -52.0259,-36.96033 -14.57813,-14.67358 -25.91327,-30.46688 -34.52089,-48.0981 -8.15931,-16.71293 -11.91829,-27.55751 -15.59803,-45 -2.56682,-12.16713 -2.74346,-14.60167 -2.75716,-38 -0.0165,-28.232 0.97565,-35.04242 8.45596,-58.0423 16.7949,-51.6397 58.40825,-95.45305 108.14487,-113.86223 21.02163,-7.7808 43.78231,-11.61108 68.79502,-11.57715 47.28955,0.0641 91.52133,18.4362 125.83773,52.26779 20.26555,19.97925 34.56613,42.43235 43.50452,68.30572 3.3021,9.55835 7.66388,27.28983 7.66388,31.15512 0,1.46638 -1.97504,2.1855 -11.15602,4.0619 -6.1358,1.25404 -16.07545,3.87042 -22.0881,5.81418 -6.01264,1.94376 -11.14228,3.3239 -11.39919,3.06699 -0.25691,-0.25691 -1.30966,-4.57952 -2.33944,-9.60581 -5.1893,-25.32867 -15.84765,-45.41695 -34.38543,-64.80781 -29.8149,-31.18693 -67.53802,-45.98491 -107.91953,-42.33453 -26.72768,2.4161 -45.75844,9.13625 -68.01045,24.01587 -49.59042,33.16043 -71.27423,98.01371 -52.1196,155.88248 12.04583,36.3921 37.0873,64.38462 72.49481,81.03806 21.70077,10.20667 38.0573,13.61602 61.42295,12.80298 23.13116,-0.80488 35.98757,-3.94232 55,-13.42205 14.39803,-7.17895 22.19968,-12.91014 35.03157,-25.7346 12.33292,-12.32579 21.42723,-24.53551 28.00718,-37.60156 3.49051,-6.93123 8.50687,-11.39333 21.96125,-19.53475 10.11161,-6.11868 34.3812,-14.84044 36.20915,-13.01249 1.01648,1.01649 -3.35225,19.3269 -7.88505,33.04816 -9.24735,27.99269 -22.2766,48.80559 -44.00435,70.29246 -29.98993,29.65747 -63.86882,46.66 -103.12097,51.7525 -12.59061,1.63349 -34.38479,1.82475 -46.69878,0.40982 z"
         id="path598" />
    </g>
  </g>
</svg>
